<svg xmlns="http://www.w3.org/2000/svg" fill="none" aria-hidden="true" viewBox="0 0 24 24" role="img">
    <path fill="var(--icon-color, #ffffff)" d="M19.67 3H4.33C3.59 3 3 3.59 3 4.33v15.34C3 20.4 3.59 21 4.33 21h15.34c.73 0 1.33-.59 1.33-1.33V4.33C21 3.6 20.41 3 19.67 3zM8.36 18.33H5.65V9.74h2.71v8.6-.01zM7.01 8.55c-.86 0-1.56-.66-1.56-1.55s.7-1.55 1.56-1.55c.86 0 1.56.66 1.56 1.55s-.7 1.55-1.56 1.55zm11.33 9.79h-2.71v-4.7c0-1.39-.59-1.81-1.35-1.81-.8 0-1.59.6-1.59 1.85v4.66H9.98v-8.6h2.6v1.19h.03c.26-.53 1.18-1.43 2.57-1.43 1.51 0 3.14.9 3.14 3.52v5.32h.02z"></path>
</svg>